<svg xmlns="http://www.w3.org/2000/svg" version="1.1" xmlns:xlink="http://www.w3.org/1999/xlink" xmlns:svgjs="http://svgjs.dev/svgjs" width="800px" height="800px"><svg fill="#000000" width="800px" height="800px" viewBox="0 0 24 24" xmlns="http://www.w3.org/2000/svg"><path d="M19.189,18.757a1,1,0,0,0-.97-.757h-.933c-1.644-1.726-2.235-4.918-2.449-7H9.163c-.214,2.082-.8,5.274-2.449,7H5.781a1,1,0,0,0-.97.757L4,22H20Z"></path><path d="M8,9h8a1,1,0,0,0,0-2h-.635a3.523,3.523,0,0,0,.278-1.357,3.643,3.643,0,0,0-7.286,0A3.523,3.523,0,0,0,8.635,7H8A1,1,0,0,0,8,9Z"></path></svg><style>@media (prefers-color-scheme: light) { :root { filter: none; } }
@media (prefers-color-scheme: dark) { :root { filter: none; } }
</style></svg>